<svg xmlns="http://www.w3.org/2000/svg" viewBox="0 0 32 32" fill="none" aria-hidden="true">
  <path d="M16 4.5c-1.2 2.4-3.4 4-6 4.6-.4 2.6.2 5 1.8 7.1C14 14.8 15 16 16 17.2c1-1.2 2-2.4 4.2-1-1.6-2.1-2.2-4.5-1.8-7.1-2.6-.6-4.8-2.2-6-4.6z" fill="#d4af37" stroke="#f0d060" stroke-width=".6"/>
  <path d="M8.5 9.2c-1.8 1.2-3.2 2.9-4 5 .8-.2 1.6-.2 2.4 0-.6-1.4-.2-3.2 1.6-5zM23.5 9.2c1.8 1.2 3.2 2.9 4 5-.8-.2-1.6-.2-2.4 0 .6-1.4.2-3.2-1.6-5z" fill="#b8922a"/>
  <path d="M6 14.5c1.2.8 2.6 1.2 4 1.1-1.2 1.6-1.8 3.5-1.6 5.5 1.4-.8 2.6-2 3.4-3.4-1.4.2-3-.2-4.2-1.1-.4-.7-.4-1.5-.6-2.1zM26 14.5c-1.2.8-2.6 1.2-4 1.1 1.2 1.6 1.8 3.5 1.6 5.5-1.4-.8-2.6-2-3.4-3.4 1.4.2 3-.2 4.2-1.1.4-.7.4-1.5.6-2.1z" fill="#c9a020"/>
  <path d="M10.5 22.5c1.8 1.4 3.6 2.2 5.5 2.5v3.5c-2-.3-3.8-1.2-5.5-2.5v-3.5zM21.5 22.5c-1.8 1.4-3.6 2.2-5.5 2.5v3.5c2-.3 3.8-1.2 5.5-2.5v-3.5z" fill="#a88418"/>
  <path d="M11 7.5l1 2 2.2.3-1.6 1.5.4 2.2L11 12.5 9 13.5l.4-2.2-1.6-1.5 2.2-.3 1-2zM21 7.5l-1 2-2.2.3 1.6 1.5-.4 2.2L21 12.5l2 1-.4-2.2 1.6-1.5-2.2-.3-1-2z" fill="#f0d060" opacity=".85"/>
  <path d="M13 18.5h6l-.8 2.2h-4.4l-.8-2.2z" fill="#e8c547"/>
  <path d="M12.5 20.7h7l-.5 1.3h-6l-.5-1.3z" fill="#d4af37"/>
  <ellipse cx="16" cy="24.8" rx="5.5" ry="1.2" fill="#806010" opacity=".45"/>
</svg>
